<svg width="482" height="280" viewBox="0 0 482 280" fill="none" xmlns="http://www.w3.org/2000/svg">
<path d="M241 0L481.8 95.199L241 190.398L0.199951 95.199L241 0ZM465 113.75V176.051C461.559 174.524 457.773 173.602 453.801 173.602C449.828 173.602 446.039 174.524 442.602 176.051V122.676L465 113.75ZM392.199 142.625V224C392.199 247.441 324.765 280 240.999 280C157.233 280 89.799 247.441 89.799 224V142.625L236.799 200.727C239.49 201.817 242.506 201.817 245.197 200.727L392.199 142.625ZM453.801 184.801C463.078 184.801 470.602 192.32 470.602 201.602C470.602 210.879 463.082 218.403 453.801 218.403C444.524 218.403 437 210.88 437 201.602C437 192.325 444.519 184.801 453.801 184.801Z" fill="#00345E"/>
</svg>
