<svg width="700" height="502" viewBox="0 0 700 502" fill="none" xmlns="http://www.w3.org/2000/svg">
<g clip-path="url(#clip0_101_6)">
<path d="M103.1 120.28C125.631 120.28 143.819 102.073 143.819 79.569C143.819 57.1 125.631 38.858 103.1 38.858C80.631 38.858 62.397 57.1 62.397 79.569C62.397 102.073 80.631 120.28 103.1 120.28ZM146.459 280.98L144.666 190.925L190.432 221.691L266.037 146.972L256.881 136.956L320.686 67.108L314.338 61.3033L251.057 130.576L248.249 127.502L187.183 177.971L130.238 141.655C122.308 134.382 111.765 129.971 100.402 130.112C89.8235 130.343 80.3275 134.495 72.9605 140.956L-0.000488281 227.905L70.2535 283.925L84.8555 268.07L64.5005 244.523L76.8015 215.718L124.634 236.144L95.9455 303.335L61.0505 288.433C61.0583 288.523 61.0583 288.609 61.0779 288.718L52.5427 375.476L48.1169 500.706L91.1439 502.226L95.4408 378.996L100.796 324.641C101.663 324.695 104.667 324.789 104.878 324.789L110.226 378.988L114.515 502.218L157.542 500.726L153.23 376.816C153.23 376.816 146.53 284.945 146.46 280.976L146.459 280.98ZM47.397 224.773L58.932 210.871L59.4906 238.738L47.397 224.773Z" fill="#00345E"/>
<path d="M700 0.281006H187.69V166.021L248.967 117.974L252.787 122.165L313.162 55.6224L325.916 67.2164L264.455 134.935L275.646 147.177L191.244 232.607L187.69 230.221V295.194H372.86L355.192 368.401H312.528V385.608H351.036L326.766 486.138L343.516 490.177L368.774 385.607H434.169L434.165 487.137H451.372V385.607H514.63L539.872 490.177L556.622 486.138L532.368 385.608H573.005V368.401H528.22L510.536 295.194H699.996L700 0.281006ZM434.16 368.401H372.918L390.602 295.194H434.164L434.16 368.401ZM451.367 368.401V295.194H492.808L510.468 368.401H451.367Z" fill="#00345E"/>
</g>
<defs>
<clipPath id="clip0_101_6">
<rect width="700" height="502" fill="white"/>
</clipPath>
</defs>
</svg>
