<svg width="560" height="428" viewBox="0 0 560 428" fill="none" xmlns="http://www.w3.org/2000/svg">
<g clip-path="url(#clip0_101_3)">
<path d="M0 428.43H560V-0.420044H0V428.43ZM107.97 394.828H41.384V346.836H107.97V394.828ZM313.49 394.828H246.736V346.836H313.603V394.941L313.49 394.828ZM452.26 29.208H518.955V77.313H452.26V29.208ZM452.26 347.008H518.842V394.778H452.147V346.954L452.26 347.008ZM347.82 29.208H414.402V77.2H347.82V29.208ZM347.82 346.838H414.402V394.83H347.765V346.838H347.82ZM246.4 29.208H313.603V77.2H246.4V29.208ZM236.49 146.808L323.568 197.206C339.584 206.444 339.584 221.565 323.568 230.808L236.49 281.206C220.474 290.444 207.369 282.886 207.369 264.405V163.605C207.201 145.234 220.474 137.675 236.49 146.804V146.808ZM142.299 29.208H208.604V77.255H142.299V29.208ZM142.299 346.838H208.604V394.885H142.299V346.783V346.838ZM41.1588 29.208H107.968V77.313H41.1588V29.208Z" fill="#00345E"/>
</g>
<defs>
<clipPath id="clip0_101_3">
<rect width="560" height="428" fill="white"/>
</clipPath>
</defs>
</svg>
